<svg width="120" height="64" viewBox="0 0 120 64" fill="none" xmlns="http://www.w3.org/2000/svg">
<rect width="120" height="64" rx="2" fill="#462512"/>
<g clip-path="url(#clip0_6445_14758)">
<path d="M79.75 51.0774V45.1887H80.918V50.0771H83.8221V51.0774H79.75Z" fill="#FFE0C4"/>
<path d="M76.0231 51.0777H74.7522L74.2472 49.7291H71.935L71.4576 51.0777H70.2188L72.4716 45.1404H73.7066L76.0231 51.0777ZM73.8723 48.7287L73.0753 46.5255L72.2939 48.7287H73.8723Z" fill="#FFE0C4"/>
<path d="M64.7007 51.0777V46.1448H62.9844V45.1404H67.581V46.1448H65.8686V51.0777H64.7007Z" fill="#FFE0C4"/>
<path d="M54.5 51.0777V45.1404H55.6364L58.0039 49.1053V45.1404H59.0892V51.0777H57.9173L55.5853 47.2059V51.0777H54.5Z" fill="#FFE0C4"/>
<path d="M46.0312 51.0777V45.1404H50.3203V46.1448H47.1992V47.461H50.1033V48.4614H47.1992V50.0773H50.4308V51.0777H46.0312Z" fill="#FFE0C4"/>
<path d="M37.1172 45.1404H39.2519C39.7333 45.1404 40.1002 45.1782 40.3527 45.2538C40.6921 45.3564 40.9828 45.5386 41.2248 45.8005C41.4668 46.0624 41.6509 46.3837 41.7772 46.7644C41.9035 47.1424 41.9666 47.6095 41.9666 48.1657C41.9666 48.6545 41.9074 49.0757 41.789 49.4293C41.6443 49.8613 41.4378 50.211 41.1695 50.4783C40.967 50.6808 40.6934 50.8387 40.3488 50.9521C40.091 51.0359 39.7464 51.0777 39.315 51.0777H37.1172V45.1404ZM38.2851 46.1448V50.0773H39.1571C39.4833 50.0773 39.7188 50.0585 39.8635 50.0207C40.0529 49.9721 40.2094 49.8897 40.333 49.7736C40.4593 49.6575 40.5619 49.4671 40.6408 49.2025C40.7197 48.9353 40.7592 48.5721 40.7592 48.1131C40.7592 47.6541 40.7197 47.3017 40.6408 47.056C40.5619 46.8103 40.4514 46.6186 40.3093 46.4809C40.1673 46.3432 39.9871 46.2501 39.7688 46.2015C39.6057 46.1637 39.2861 46.1448 38.8099 46.1448H38.2851Z" fill="#FFE0C4"/>
<path d="M16.6146 21.0397C17.759 20.1672 19.29 19.853 20.7528 19.8354C22.1614 19.8354 23.6242 20.0715 24.8228 20.7829C25.542 21.2183 26.1701 21.8819 26.2717 22.6906C26.3574 23.3397 26.2611 24.1069 25.668 24.5456C25.052 24.9667 24.2419 25.0337 23.4948 25.0385C23.4842 24.1564 23.4107 23.2281 22.9331 22.4401C22.6181 21.9154 22.0372 21.523 21.3828 21.4433C20.4886 21.3268 19.5123 21.4799 18.7878 21.9951C17.9812 22.6076 17.5787 23.5391 17.3303 24.4435C16.9331 25.9428 16.8841 27.4964 16.8963 29.0324C16.9226 30.251 17.0451 31.4855 17.479 32.6467C17.7747 33.4251 18.2489 34.1843 19.0066 34.6597C19.9759 35.2817 21.2253 35.3997 22.3749 35.2785C23.8149 35.1238 25.1395 34.2896 25.8044 33.1157C26.3504 33.6005 26.4483 34.3837 26.1982 35.0169C25.9409 35.6948 25.3477 36.218 24.6828 36.5769C23.6452 37.1288 22.4326 37.3473 21.241 37.3664C19.9374 37.3967 18.6041 37.1702 17.4598 36.5849C16.2787 35.974 15.3985 34.9595 14.8613 33.835C14.0599 32.1905 13.8587 30.3659 13.8675 28.5842C13.8797 27.0418 14.0127 25.4771 14.5499 24.0049C14.9506 22.882 15.6015 21.7989 16.6181 21.0429L16.6146 21.0397Z" fill="#E9811F"/>
<path d="M29.8402 14.7253C29.828 14.2803 29.8192 13.8353 29.8437 13.3918C31.8122 13.411 33.7807 13.3855 35.751 13.4062C35.7422 20.0878 35.751 26.7693 35.7475 33.4525C35.744 34.0762 35.7422 34.7525 36.1359 35.2932C36.4176 35.7031 36.9356 35.9264 37.4483 35.987C37.863 36.0429 38.2829 36.0524 38.7011 36.0365C38.7291 36.4799 38.7081 36.9249 38.7116 37.3683C35.7632 37.3667 32.8131 37.3747 29.8647 37.3635L29.835 37.338C29.821 36.9073 29.835 36.4735 29.8315 36.0413C30.5681 36.0333 31.3853 36.0779 32.0152 35.6664C32.6294 35.2469 32.8008 34.5005 32.7973 33.8385C32.7973 28.1586 32.7973 22.4787 32.7973 16.8004C32.8044 16.1752 32.6189 15.4781 32.0362 15.0906C31.401 14.6806 30.5786 14.7269 29.8385 14.7253H29.8402Z" fill="#E9811F"/>
<path d="M47.4626 19.86C48.782 19.7754 50.1485 19.8982 51.3612 20.4055C52.3743 20.8186 53.2318 21.514 53.844 22.3546C54.5439 23.3052 54.9551 24.4074 55.1967 25.5239C55.4925 26.9291 55.5307 28.3694 55.4485 29.7954C55.3577 31.1639 55.111 32.5468 54.5073 33.8117C54.0455 34.7846 53.3226 35.6667 52.3655 36.2792C51.3612 36.9316 50.1381 37.2585 48.9167 37.3399C47.5816 37.434 46.201 37.3016 44.9779 36.7816C43.9018 36.3366 43.0059 35.5694 42.3883 34.657C41.7549 33.7272 41.3752 32.6712 41.1495 31.6026C40.8922 30.3568 40.838 29.0856 40.88 27.8208C40.936 26.4985 41.1162 25.1666 41.5991 23.9113C42.0086 22.8554 42.6665 21.8522 43.6359 21.1456C44.7068 20.3369 46.0908 19.9461 47.4644 19.86H47.4626ZM47.6131 21.5236C46.88 21.589 46.1608 21.8569 45.6271 22.3275C44.8363 23.0133 44.4635 23.9911 44.2343 24.9417C43.8808 26.5384 43.8616 28.1796 43.9246 29.8002C44.0033 31.0938 44.1416 32.4192 44.7138 33.6203C45.0917 34.4274 45.7549 35.1674 46.6735 35.4896C47.5449 35.7911 48.5283 35.8055 49.4242 35.579C50.3725 35.3381 51.1144 34.6475 51.5274 33.85C52.1905 32.5931 52.3305 31.1767 52.4145 29.8018C52.4793 28.1653 52.4565 26.5096 52.0943 24.9002C51.8494 23.8954 51.4294 22.8538 50.53 22.1823C49.7251 21.5762 48.6262 21.4295 47.6149 21.5236H47.6131Z" fill="#E9811F"/>
<path d="M81.0237 20.4129C82.1523 19.9105 83.4403 19.7733 84.6842 19.8594C86.0369 19.9488 87.3857 20.4209 88.3553 21.3013C89.4017 22.236 89.9808 23.5168 90.273 24.8056C90.5829 26.1231 90.5388 27.4773 90.5318 28.8171C87.0603 28.8139 83.5907 28.8267 80.1208 28.8107C80.0962 29.5317 80.1769 30.2542 80.2802 30.9688C80.4637 32.055 80.7876 33.1652 81.5331 34.0536C82.021 34.6438 82.7314 35.0728 83.5206 35.2467C84.9765 35.5705 86.5845 35.32 87.8198 34.5401C88.3884 34.186 88.8978 33.7362 89.2388 33.1875C89.51 33.288 89.6624 33.5448 89.7656 33.7808C89.9983 34.4172 89.6974 35.1015 89.2688 35.6087C88.5127 36.4764 87.3475 36.9518 86.1909 37.2054C84.5599 37.5004 82.7996 37.435 81.2774 36.7843C80.1087 36.2978 79.1531 35.4444 78.5109 34.4396C77.5171 32.8876 77.1516 31.0693 77.0865 29.2924C77.0518 28.0116 77.12 26.7212 77.3823 25.4596C77.5943 24.4627 77.9337 23.477 78.5023 22.5981C79.097 21.6778 79.9618 20.885 81.0237 20.4177V20.4129ZM81.9407 22.2041C81.3335 22.705 80.9695 23.3972 80.7174 24.0958C80.3729 25.072 80.2291 26.0976 80.1664 27.1184C82.5689 27.1184 84.9711 27.1296 87.3721 27.112C87.358 26.0577 87.2863 24.9938 86.9765 23.973C86.7509 23.2473 86.3884 22.5136 85.7185 22.0382C85.1515 21.614 84.3849 21.4912 83.6694 21.5422C83.0342 21.5805 82.408 21.8086 81.9388 22.2041H81.9407Z" fill="#E9811F"/>
<path d="M57.3393 20.4446C59.9465 20.4461 62.5536 20.4446 65.1612 20.4446C65.1678 20.8848 65.1541 21.3234 65.1697 21.7637C64.5922 21.7828 63.9624 21.7509 63.462 22.0635C63.0088 22.3347 62.8704 22.8658 62.8864 23.3316C62.8969 23.9536 63.1733 24.5358 63.3673 25.1244C63.9328 26.7035 64.4924 28.2825 65.0579 29.8616C65.4254 30.8697 65.7578 31.8873 66.0567 32.9129C66.2738 33.6594 66.5014 34.4075 66.6362 35.1715C66.6569 35.1651 66.7024 35.1555 66.7235 35.1491C67.2048 33.5764 67.854 32.0516 68.4172 30.5044C69.103 28.6319 69.7874 26.7577 70.4733 24.8867C70.7094 24.2886 70.8984 23.6506 70.8146 23.011C70.7671 22.6457 70.5785 22.2741 70.225 22.0763C69.7227 21.7812 69.1065 21.786 68.5345 21.7605C68.5555 21.3218 68.5364 20.8832 68.545 20.4446C70.7831 20.4493 73.0192 20.4446 75.2554 20.4462C75.2483 20.8896 75.2678 21.3346 75.2448 21.778C74.7569 21.7732 74.218 21.7493 73.7963 22.0109C73.3902 22.282 73.1626 22.7079 72.9615 23.1162C72.5414 24.0063 72.2351 24.9378 71.8801 25.8501C71.0262 28.123 70.1689 30.3959 69.315 32.6689C68.7165 34.2352 68.1494 35.8111 67.5337 37.371C66.5887 37.3583 65.644 37.3662 64.6974 37.3678C62.9842 32.6928 61.3116 28.0034 59.609 23.3252C59.4165 22.8579 59.1924 22.3602 58.7306 22.0603C58.328 21.7971 57.8101 21.7796 57.3343 21.7716C57.3272 21.3298 57.3237 20.8864 57.3378 20.4446H57.3393Z" fill="#E9811F"/>
<path d="M100.611 18.6123C101.326 18.6139 102.042 18.6139 102.758 18.6123C104.175 20.1834 105.36 21.9443 106.144 23.8536C106.728 25.3242 106.982 26.8937 106.99 28.4553C107.008 29.827 106.815 31.2003 106.39 32.5178C105.687 34.7429 104.345 36.7574 102.753 38.5454C102.039 38.5406 101.323 38.5406 100.609 38.5454C102.104 36.7031 103.096 34.5467 103.6 32.3057C104.275 29.3357 104.133 26.2095 103.167 23.3065C102.614 21.6253 101.752 20.0271 100.609 18.6123H100.611Z" fill="#FFE0C4"/>
<path d="M94.9473 22.48C96.0669 22.48 97.1869 22.48 98.3069 22.48C98.3069 23.5088 98.3069 24.536 98.3069 25.5648C97.1854 25.5648 96.0653 25.5648 94.9453 25.5648C94.9453 24.5376 94.9453 23.5088 94.9453 22.4816L94.9473 22.48Z" fill="#FFE0C4"/>
<path d="M94.9074 31.3361C96.0274 31.3361 97.1471 31.3408 98.2671 31.3345C98.2671 32.3633 98.2671 33.3921 98.2671 34.4208C97.1471 34.4208 96.0274 34.4208 94.9074 34.4208C94.9059 33.3921 94.9059 32.3649 94.9074 31.3361Z" fill="#FFE0C4"/>
</g>
<defs>
<clipPath id="clip0_6445_14758">
<rect width="93" height="38" fill="white" transform="translate(14 13)"/>
</clipPath>
</defs>
</svg>
